<?xml version="1.0" standalone="no"?>
<!DOCTYPE svg PUBLIC "-//W3C//DTD SVG 20010904//EN"
 "http://www.w3.org/TR/2001/REC-SVG-20010904/DTD/svg10.dtd">
<svg version="1.0" xmlns="http://www.w3.org/2000/svg"
 width="1280.000000pt" height="1280.000000pt" viewBox="0 0 1280.000000 1280.000000"
 preserveAspectRatio="xMidYMid meet">
<metadata>
Created by potrace 1.14, written by Peter Selinger 2001-2017
</metadata>
<g transform="translate(0.000000,1280.000000) scale(0.100000,-0.100000)"
fill="#000000" stroke="none">
<path d="M0 6400 l0 -6400 6400 0 6400 0 0 6400 0 6400 -6400 0 -6400 0 0
-6400z m8290 1675 c22 -7 77 -93 109 -171 l28 -69 161 -2 c182 -2 196 -6 256
-74 72 -79 125 -227 173 -485 l27 -142 86 -4 c62 -3 96 -10 121 -24 72 -41
148 -194 178 -358 6 -33 14 -62 17 -65 3 -3 59 -4 124 -3 130 4 180 -2 180
-23 0 -9 -36 -14 -150 -17 -82 -2 -151 -6 -152 -9 -2 -2 -2 -34 0 -71 l4 -68
157 0 158 0 11 -25 c18 -39 15 -144 -6 -185 l-17 -35 -154 -5 -154 -5 -24
-110 c-52 -233 -114 -327 -240 -364 -37 -11 -88 -22 -113 -26 l-46 -6 -17 -87
c-42 -206 -124 -389 -185 -414 -16 -7 -103 -12 -212 -14 l-185 -2 -50 -101
c-28 -55 -66 -116 -85 -136 l-34 -35 -175 0 -176 0 -60 63 c-94 98 -158 241
-240 538 -62 226 -117 486 -131 632 l-7 67 -1071 0 c-614 0 -1065 -4 -1057 -9
7 -5 11 -13 8 -18 -3 -4 -21 -96 -41 -203 -63 -342 -161 -692 -238 -844 -36
-70 -104 -162 -148 -200 -31 -26 -33 -26 -195 -26 l-163 0 -42 47 c-23 26 -61
88 -84 137 l-43 89 -184 1 c-157 1 -189 4 -217 19 -66 36 -122 160 -170 377
l-28 125 -71 6 c-99 9 -140 25 -194 76 -69 64 -127 213 -146 370 l-6 53 -153
0 -153 0 -18 33 c-24 45 -24 153 0 190 l17 27 150 0 150 0 0 74 0 74 -142 1
c-79 1 -147 6 -152 11 -19 19 48 30 173 30 l128 0 12 73 c6 40 25 110 40 155
57 164 111 209 260 219 l90 6 7 46 c14 104 57 290 91 393 38 116 70 169 136
222 l39 31 171 5 171 5 28 73 c30 80 78 156 103 166 9 3 90 6 179 6 189 0 187
1 254 -102 55 -84 102 -213 162 -443 87 -335 146 -648 174 -922 l5 -53 -52 0
-52 0 -29 168 c-49 288 -87 410 -151 477 -53 57 -115 58 -165 5 -96 -103 -131
-796 -60 -1210 48 -287 147 -413 266 -339 38 23 66 64 89 133 21 60 72 306 81
389 l7 60 -181 -6 -180 -6 -7 65 c-9 80 0 153 20 174 14 13 163 15 1283 18
697 1 1377 -1 1512 -5 l245 -8 12 -60 c8 -35 10 -86 7 -123 l-7 -64 -185 8
c-107 4 -183 3 -180 -2 3 -5 13 -61 23 -124 48 -333 117 -470 234 -470 45 0
105 58 131 127 79 211 116 615 91 996 -19 282 -53 436 -105 472 -45 32 -122
14 -168 -40 -51 -59 -108 -265 -138 -500 -18 -144 -13 -135 -71 -135 l-50 0 6
58 c24 217 40 303 121 632 122 492 198 731 254 794 23 25 38 32 87 37 57 7
274 2 303 -6z"/>
<path d="M4530 8020 c-27 -27 -40 -62 -93 -250 -66 -235 -114 -489 -139 -730
-21 -198 -17 -927 5 -1105 39 -314 126 -673 207 -852 l29 -63 190 0 191 0 0
24 c0 14 -18 76 -39 138 -85 244 -156 523 -190 755 -37 243 -44 354 -38 631 6
296 17 395 87 742 41 208 54 259 137 523 64 204 62 207 -174 207 -139 0 -155
-2 -173 -20z"/>
<path d="M7922 8024 c-31 -22 -28 -55 17 -175 84 -225 142 -490 197 -909 26
-191 26 -665 0 -870 -46 -379 -120 -692 -221 -943 -19 -48 -35 -91 -35 -97 0
-7 66 -10 197 -8 l198 3 27 50 c77 141 156 467 200 826 20 164 22 231 23 614
0 462 -6 542 -61 865 -33 192 -108 484 -150 587 -31 74 -29 73 -208 73 -130 0
-166 -3 -184 -16z"/>
<path d="M4050 7779 c-67 -27 -106 -89 -144 -229 -104 -385 -132 -674 -116
-1176 10 -327 26 -496 64 -704 45 -240 96 -383 147 -411 15 -8 75 -9 198 -4
l177 7 -37 137 c-111 400 -163 878 -141 1283 23 421 73 734 171 1076 l10 32
-152 -1 c-84 0 -163 -5 -177 -10z"/>
<path d="M8450 7766 c12 -33 76 -320 94 -428 44 -255 67 -537 67 -838 0 -383
-48 -781 -137 -1134 -14 -54 -23 -100 -21 -103 3 -2 86 -5 184 -6 144 -2 183
1 197 12 60 50 146 364 176 636 18 164 32 618 25 800 -19 475 -117 949 -217
1042 -39 36 -73 43 -228 43 l-150 0 10 -24z"/>
<path d="M3593 7070 c-55 -13 -80 -36 -103 -97 -81 -217 -103 -528 -56 -805
43 -250 75 -321 159 -353 63 -23 197 -45 197 -31 0 6 -9 72 -20 146 -22 158
-37 294 -45 440 -9 138 13 492 41 673 l6 37 -74 -1 c-40 -1 -88 -4 -105 -9z"/>
<path d="M9059 7076 c-3 -3 -2 -30 2 -59 16 -103 39 -442 39 -571 0 -176 -36
-533 -66 -651 l-6 -23 70 13 c38 8 96 24 128 37 74 29 94 62 135 225 70 277
48 735 -45 938 -33 73 -59 88 -165 93 -47 2 -89 1 -92 -2z"/>
</g>
</svg>
